<svg xmlns="http://www.w3.org/2000/svg" viewBox="0 0 1000 1000"><rect width="1000" height="1000" rx="180" fill="#1C1C1A"/><path fill="#F2EFE9" fill-rule="evenodd" transform="translate(130.0,210.5) scale(0.74)" d="M 49.6,0.9 C 46.4,1.7 44.5,1.7 31.5,1.7 C 11.1,1.7 6.4,3.2 2.1,11.9 C -0.2,16.2 -0.6,32.7 0.9,39.3 C 1.3,41.7 1.7,44.0 1.7,46.4 C 1.7,48.7 2.1,51.1 2.1,51.9 C 2.5,53.1 2.9,55.4 3.3,57.8 C 3.7,60.1 4.5,63.6 4.9,65.2 C 5.3,67.2 6.0,70.3 6.0,72.3 C 6.4,74.2 7.6,78.2 8.0,80.9 C 8.8,84.0 9.6,87.6 9.6,88.4 C 10.0,89.5 10.4,91.5 11.1,93.1 C 11.5,94.6 13.1,99.7 14.3,104.8 C 17.4,117.4 20.6,125.6 24.5,129.9 C 28.0,134.3 28.0,133.5 28.0,145.6 C 28.0,156.2 28.0,156.2 26.4,160.2 C 24.9,164.5 24.5,176.6 26.0,182.1 C 26.4,184.1 26.8,185.7 26.8,186.0 C 26.8,187.6 29.2,196.2 30.0,197.4 C 30.0,198.2 31.5,201.7 32.7,206.1 C 34.3,210.0 35.9,214.7 36.6,216.3 C 37.4,217.4 38.6,220.2 39.0,221.7 C 39.8,223.3 40.6,225.7 41.3,227.2 C 42.1,228.4 43.3,231.2 43.7,232.7 C 44.5,234.3 45.7,237.4 46.8,239.8 C 48.0,242.1 50.0,246.5 50.8,249.2 C 51.9,252.0 53.5,256.3 54.7,258.6 C 55.9,261.0 57.4,264.1 57.8,265.7 C 58.6,267.3 59.4,269.6 60.2,270.8 C 61.0,272.4 62.1,274.7 62.9,276.7 C 66.1,284.9 67.2,288.0 68.4,290.0 C 68.8,291.6 70.0,293.9 70.4,295.5 C 71.2,297.1 71.9,299.4 72.7,300.6 C 73.5,302.2 74.7,304.5 75.5,306.5 C 78.6,314.7 79.8,317.9 81.0,319.8 C 81.4,321.4 82.5,323.7 82.9,325.3 C 83.7,326.9 84.5,329.2 85.3,330.8 C 86.1,332.0 87.2,334.7 87.6,336.3 C 88.4,337.9 89.2,340.2 90.0,341.4 C 90.8,343.0 92.0,345.3 92.7,347.3 C 95.9,355.5 97.1,358.7 98.2,360.6 C 98.6,362.2 99.8,364.5 100.2,366.1 C 106.1,381.8 110.4,383.8 113.9,372.4 C 116.3,365.3 117.8,362.6 119.8,361.0 C 126.9,354.3 130.0,367.7 124.9,381.8 C 120.6,394.0 121.8,412.4 126.9,423.4 C 128.0,425.7 129.6,428.9 130.0,430.4 C 130.8,432.0 132.0,435.2 133.1,437.5 C 134.3,439.9 135.9,443.0 136.3,444.6 C 137.1,446.1 137.9,448.5 138.6,450.1 C 139.4,451.2 140.6,453.6 140.6,454.4 C 141.8,457.1 146.1,466.5 152.0,479.5 C 153.5,483.0 155.1,486.5 155.5,487.3 C 155.9,488.5 157.1,491.3 158.3,493.6 C 159.4,496.0 161.0,499.5 161.4,501.1 C 162.2,502.6 163.4,505.8 164.5,508.1 C 165.7,510.5 167.3,513.6 167.7,515.2 C 168.5,516.8 169.6,519.9 170.8,522.2 C 172.0,524.6 173.6,527.7 173.9,529.3 C 174.7,530.9 175.9,534.0 177.1,536.4 C 178.3,538.7 179.8,541.9 180.2,543.4 C 181.0,545.0 182.2,548.1 183.4,550.5 C 184.5,552.8 186.1,556.0 186.5,557.5 C 187.3,559.1 188.9,562.6 190.4,566.2 C 192.0,569.3 194.0,573.2 194.3,574.8 C 195.1,576.4 195.9,578.7 196.7,580.3 C 197.5,581.5 198.7,584.2 199.1,585.8 C 200.6,589.7 204.2,596.4 205.7,598.3 C 206.5,599.1 208.1,601.1 208.9,602.7 C 215.1,611.3 229.6,621.1 243.0,625.0 C 254.0,628.6 250.4,628.2 297.9,628.6 C 349.3,628.9 343.4,627.4 343.8,641.1 C 343.8,654.8 344.6,653.7 324.6,673.7 C 316.7,681.9 309.7,689.4 308.9,690.1 C 308.1,691.3 301.0,698.8 293.2,706.6 C 285.4,714.9 278.3,722.3 277.5,723.1 C 276.7,724.3 270.1,731.3 262.6,738.8 C 255.1,746.6 248.5,753.7 247.7,754.5 C 246.9,755.7 242.6,760.4 238.3,765.1 C 226.1,777.2 224.2,781.2 229.6,781.9 C 235.5,783.1 674.9,781.9 676.9,781.2 C 685.9,776.8 685.9,763.5 676.9,759.2 C 674.9,758.0 674.9,758.0 619.2,758.0 C 558.4,757.6 562.3,758.0 560.7,755.7 C 559.2,753.7 559.2,735.7 560.7,732.5 C 562.3,729.4 569.8,718.8 572.5,716.0 C 573.7,714.5 574.9,713.3 579.6,706.2 C 580.8,705.1 582.3,702.7 583.5,701.5 C 584.7,700.7 585.9,698.8 586.6,697.6 C 587.4,696.8 588.6,695.2 589.0,694.5 C 589.8,693.7 591.3,691.3 592.9,689.0 C 594.5,686.6 596.4,684.3 597.2,683.1 C 598.8,681.9 600.0,679.9 604.7,673.3 C 605.9,672.1 607.4,670.1 608.2,669.0 C 609.8,667.8 610.6,666.6 615.7,659.2 C 616.8,658.0 618.8,655.6 620.0,654.4 C 624.3,649.3 625.1,647.4 625.5,639.9 C 625.9,632.9 625.9,632.1 628.6,630.9 C 629.4,630.5 649.0,630.1 796.1,630.1 C 950.7,629.7 962.5,629.7 964.8,629.3 C 966.0,628.9 967.9,628.6 969.1,628.6 C 976.6,628.6 989.9,622.3 994.6,617.2 C 998.2,612.5 1000.9,601.5 999.7,597.2 C 999.3,596.4 998.9,594.0 998.9,592.1 C 998.2,584.6 993.4,576.0 988.3,572.1 C 986.8,571.3 983.6,568.5 981.7,566.6 C 979.7,564.6 977.0,562.6 976.2,561.9 C 975.0,561.1 971.9,558.3 969.1,555.6 C 966.0,552.8 962.8,550.1 962.1,549.3 C 960.9,548.5 958.1,546.2 955.8,543.8 C 953.0,541.5 950.3,539.1 949.5,538.3 C 948.3,537.5 945.6,535.2 943.2,532.8 C 940.5,530.5 937.7,528.1 937.0,527.3 C 935.8,526.6 933.0,524.6 931.5,522.6 C 929.5,520.7 926.8,518.7 926.0,517.9 C 924.8,517.1 922.0,515.2 920.5,513.2 C 918.5,511.3 915.8,509.3 915.0,508.5 C 913.8,507.7 911.8,506.6 911.1,505.4 C 908.7,503.4 899.3,497.1 896.6,495.6 C 895.8,495.2 893.8,494.0 892.6,493.2 C 889.9,491.3 885.2,488.9 882.8,488.1 C 881.6,487.7 878.9,486.5 876.9,485.8 C 871.4,483.0 853.8,478.7 849.1,478.7 C 847.5,478.7 844.8,478.3 842.8,477.9 C 839.7,477.1 836.1,477.1 613.7,477.1 C 391.3,477.1 387.7,477.1 384.6,476.3 C 382.6,476.0 380.7,475.6 379.9,475.6 C 377.9,475.6 372.8,474.0 368.9,472.4 C 367.0,471.6 364.2,470.9 363.4,470.5 C 356.8,467.7 345.4,458.7 341.1,452.0 C 334.4,442.2 333.6,439.5 333.6,426.9 C 334.0,413.6 333.6,414.0 345.0,413.6 C 348.9,413.2 352.8,413.2 354.4,412.8 C 356.0,412.4 358.3,412.0 362.6,412.0 C 367.3,412.0 369.7,411.6 372.1,411.2 C 374.4,410.8 376.8,410.4 381.5,410.4 C 386.2,410.4 388.5,410.0 390.9,409.7 C 393.6,408.9 395.6,408.9 401.9,408.9 C 408.1,408.9 410.1,408.9 412.9,408.1 C 415.2,407.7 417.6,407.3 422.3,407.3 C 427.0,407.3 429.3,406.9 431.7,406.5 C 434.0,406.1 436.4,405.7 440.3,405.7 C 444.2,405.7 446.6,405.3 448.9,404.9 C 451.3,404.6 453.6,404.2 458.4,404.2 C 463.1,404.2 465.4,403.8 467.8,403.4 C 470.5,402.6 472.5,402.6 478.8,402.6 C 485.0,402.6 487.0,402.6 489.7,401.8 C 492.5,401.0 494.4,401.0 502.3,401.0 C 510.1,401.0 512.1,401.0 514.8,400.2 C 517.6,399.5 519.6,399.5 525.0,399.5 C 530.5,399.5 532.5,399.5 535.2,398.7 C 537.6,398.3 540.0,397.9 543.1,397.9 C 565.1,397.9 574.9,374.3 558.8,359.0 C 552.9,353.2 553.3,353.6 539.2,353.2 C 530.1,352.8 526.6,352.8 525.0,352.4 C 521.1,351.2 487.4,351.2 482.7,352.4 C 479.5,353.2 477.6,353.2 418.3,353.2 C 358.7,353.2 357.5,353.2 354.0,353.9 C 349.3,355.1 308.9,355.1 306.9,353.9 C 304.2,352.8 304.2,352.0 303.8,342.2 C 303.4,333.2 303.4,333.2 302.2,330.0 C 301.4,328.1 299.9,324.1 298.7,321.0 C 297.9,317.9 296.7,314.7 296.3,313.9 C 295.9,313.1 294.8,310.0 294.0,307.3 C 292.8,304.5 291.6,301.0 290.8,299.4 C 290.1,297.8 288.5,294.3 287.7,291.6 C 286.5,288.8 285.4,286.1 285.4,285.3 C 285.0,284.9 283.8,281.8 283.0,279.0 C 281.8,276.3 280.6,272.7 279.9,271.2 C 279.1,269.6 277.5,266.1 276.7,263.3 C 274.8,258.6 273.6,255.5 270.8,248.0 C 270.1,246.5 268.9,243.7 268.1,241.8 C 267.7,239.8 266.9,237.8 266.5,237.0 C 266.1,236.3 265.0,233.1 264.2,230.4 C 257.9,212.7 238.7,186.0 224.9,176.2 C 223.4,175.5 221.8,174.3 221.4,173.9 C 221.0,173.1 218.7,171.5 215.9,169.6 C 209.6,165.3 210.0,166.0 209.6,154.7 C 209.6,142.9 209.2,143.7 215.1,137.8 C 221.4,131.5 225.3,123.7 225.3,116.2 C 225.3,115.4 225.7,113.5 226.1,111.5 C 227.3,107.6 227.3,93.1 226.1,89.1 C 226.1,88.0 225.3,85.6 225.3,83.7 C 224.9,81.7 224.5,79.7 223.8,77.8 C 223.4,76.2 222.6,74.2 222.2,73.1 C 220.6,66.0 215.9,54.6 212.4,50.3 C 210.4,48.0 207.7,44.0 205.3,40.9 C 203.0,37.4 198.3,32.7 195.1,30.3 C 193.6,29.5 191.6,28.0 190.8,27.2 C 190.0,26.4 188.1,25.2 187.3,24.8 C 186.5,24.4 184.5,23.2 183.4,22.5 C 180.2,20.5 166.1,13.4 163.0,12.3 C 159.0,11.1 146.1,7.9 144.5,7.9 C 143.7,7.9 141.8,7.6 139.8,7.2 C 137.9,6.8 135.1,6.4 133.5,6.4 C 132.0,6.4 129.2,6.0 127.3,5.6 C 125.3,5.2 122.6,4.8 120.2,4.8 C 117.8,4.8 115.1,4.4 113.1,4.0 C 110.8,3.6 108.4,3.2 105.3,3.2 C 102.2,3.2 99.8,2.8 97.4,2.5 C 94.7,1.7 92.7,1.7 81.8,1.7 C 70.8,1.7 68.8,1.7 66.1,0.9 C 61.7,-0.3 53.9,-0.3 49.6,0.9"/></svg>